<svg width="477" height="429" viewBox="0 0 477 429" fill="none" xmlns="http://www.w3.org/2000/svg">
<mask id="mask0_2_125" style="mask-type:alpha" maskUnits="userSpaceOnUse" x="7" y="10" width="458" height="419">
<path d="M315.258 20.4499C264.871 7.35618 211.975 7.35616 161.589 20.4499L145.919 24.522C61.069 46.5717 3.27266 125.054 7.39502 212.625L8.17219 229.134C11.1929 293.303 52.2236 349.474 112.434 371.868C119.166 374.372 124.894 379.011 128.742 385.077L142.285 406.429C147.933 415.333 156.586 421.917 166.674 424.986L167.447 425.221C169.322 425.791 171.279 426.039 173.237 425.954C182.796 425.539 190.835 418.647 192.706 409.262L192.952 408.026C194.505 400.235 205.542 399.948 207.498 407.648L207.976 409.533C210.382 419.006 218.358 426.031 228.06 427.221L235.68 428.156C238.034 428.445 240.415 428.445 242.769 428.156L249.616 427.316C259.784 426.068 268.143 418.706 270.665 408.777L271.005 407.439C273.055 399.367 284.565 399.488 286.444 407.602L286.872 409.448C289.036 418.785 297.159 425.535 306.735 425.951C308.746 426.038 310.757 425.783 312.683 425.198L313.264 425.021C323.4 421.937 332.027 415.194 337.466 406.103L350.14 384.917C353.71 378.951 359.112 374.298 365.542 371.652C420.268 349.13 457.71 297.783 462.425 238.792L463.941 219.816C471.219 128.751 412.062 45.6062 323.643 22.6291L315.258 20.4499Z" fill="#FFF0D3"/>
</mask>
<g mask="url(#mask0_2_125)">
<g filter="url(#filter0_di_2_125)">
<path d="M315.258 20.4499C264.871 7.35618 211.975 7.35616 161.589 20.4499L145.919 24.522C61.069 46.5717 3.27266 125.054 7.39502 212.625L8.17219 229.134C11.1929 293.303 52.2236 349.474 112.434 371.868C119.166 374.372 124.894 379.011 128.742 385.077L142.285 406.429C147.933 415.333 156.586 421.917 166.674 424.986L167.447 425.221C169.322 425.791 171.279 426.039 173.237 425.954C182.796 425.539 190.835 418.647 192.706 409.262L192.952 408.026C194.505 400.235 205.542 399.948 207.498 407.648L207.976 409.533C210.382 419.006 218.358 426.031 228.06 427.221L235.68 428.156C238.034 428.445 240.415 428.445 242.769 428.156L249.616 427.316C259.784 426.068 268.143 418.706 270.665 408.777L271.005 407.439C273.055 399.367 284.565 399.488 286.444 407.602L286.872 409.448C289.036 418.785 297.159 425.535 306.735 425.951C308.746 426.038 310.757 425.783 312.683 425.198L313.264 425.021C323.4 421.937 332.027 415.194 337.466 406.103L350.14 384.917C353.71 378.951 359.112 374.298 365.542 371.652C420.268 349.13 457.71 297.783 462.425 238.792L463.941 219.816C471.219 128.751 412.062 45.6062 323.643 22.6291L315.258 20.4499Z" fill="url(#paint0_radial_2_125)"/>
</g>
<g filter="url(#filter1_f_2_125)">
<ellipse cx="167.171" cy="27.7966" rx="80.7527" ry="31.4698" fill="white"/>
</g>
<g filter="url(#filter2_f_2_125)">
<ellipse cx="167.171" cy="27.7968" rx="51.658" ry="20.1882" fill="white"/>
</g>
<g opacity="0.4" filter="url(#filter3_f_2_125)">
<path d="M86.8621 313.882C84.6096 283.677 106.224 256.924 136.228 252.78L209.187 242.704C223.267 240.759 237.547 240.759 251.628 242.704L324.297 252.74C354.43 256.902 376.095 283.831 373.708 314.156C369.889 362.67 329.407 400.09 280.743 400.09H179.739C130.989 400.09 90.4876 362.497 86.8621 313.882Z" fill="url(#paint1_linear_2_125)"/>
</g>
<g filter="url(#filter4_dd_2_125)">
<circle cx="122.935" cy="177.723" r="61.4552" fill="url(#paint2_linear_2_125)"/>
</g>
<g filter="url(#filter5_dd_2_125)">
<circle cx="353.911" cy="177.724" r="61.4552" fill="url(#paint3_linear_2_125)"/>
</g>
<g filter="url(#filter6_f_2_125)">
<ellipse cx="55.1478" cy="12.5969" rx="55.1478" ry="12.5969" transform="matrix(0.771824 -0.635836 0.664722 0.747091 293.644 422.888)" fill="white"/>
</g>
<g filter="url(#filter7_f_2_125)">
<ellipse cx="18.8145" cy="6.67382" rx="18.8145" ry="6.67382" transform="matrix(0.771824 -0.635836 0.664722 0.747091 314.659 420.498)" fill="white"/>
</g>
<g filter="url(#filter8_f_2_125)">
<ellipse cx="265.958" cy="424.904" rx="27.6765" ry="14.1939" transform="rotate(-40.5683 265.958 424.904)" fill="white"/>
</g>
<g filter="url(#filter9_f_2_125)">
<ellipse cx="188.806" cy="428.43" rx="39.7783" ry="14.1939" transform="rotate(-40.5683 188.806 428.43)" fill="white"/>
</g>
</g>
<defs>
<filter id="filter0_di_2_125" x="-12.4065" y="-4.42107" width="487.64" height="441.107" filterUnits="userSpaceOnUse" color-interpolation-filters="sRGB">
<feFlood flood-opacity="0" result="BackgroundImageFix"/>
<feColorMatrix in="SourceAlpha" type="matrix" values="0 0 0 0 0 0 0 0 0 0 0 0 0 0 0 0 0 0 127 0" result="hardAlpha"/>
<feOffset dx="7.71901" dy="5.34393"/>
<feGaussianBlur stdDeviation="1.48442"/>
<feColorMatrix type="matrix" values="0 0 0 0 1 0 0 0 0 0 0 0 0 0 0.12 0 0 0 1 0"/>
<feBlend mode="normal" in2="BackgroundImageFix" result="effect1_dropShadow_2_125"/>
<feBlend mode="normal" in="SourceGraphic" in2="effect1_dropShadow_2_125" result="shape"/>
<feColorMatrix in="SourceAlpha" type="matrix" values="0 0 0 0 0 0 0 0 0 0 0 0 0 0 0 0 0 0 127 0" result="hardAlpha"/>
<feOffset dx="-19.5944" dy="-15.0507"/>
<feGaussianBlur stdDeviation="15.0507"/>
<feComposite in2="hardAlpha" operator="arithmetic" k2="-1" k3="1"/>
<feColorMatrix type="matrix" values="0 0 0 0 0 0 0 0 0 1 0 0 0 0 0.94 0 0 0 0.31 0"/>
<feBlend mode="normal" in2="shape" result="effect2_innerShadow_2_125"/>
</filter>
<filter id="filter1_f_2_125" x="27.0412" y="-63.0502" width="280.259" height="181.694" filterUnits="userSpaceOnUse" color-interpolation-filters="sRGB">
<feFlood flood-opacity="0" result="BackgroundImageFix"/>
<feBlend mode="normal" in="SourceGraphic" in2="BackgroundImageFix" result="shape"/>
<feGaussianBlur stdDeviation="29.6885" result="effect1_foregroundBlur_2_125"/>
</filter>
<filter id="filter2_f_2_125" x="56.1356" y="-51.7683" width="222.07" height="159.13" filterUnits="userSpaceOnUse" color-interpolation-filters="sRGB">
<feFlood flood-opacity="0" result="BackgroundImageFix"/>
<feBlend mode="normal" in="SourceGraphic" in2="BackgroundImageFix" result="shape"/>
<feGaussianBlur stdDeviation="29.6885" result="effect1_foregroundBlur_2_125"/>
</filter>
<filter id="filter3_f_2_125" x="-2.36444" y="152.18" width="465.317" height="336.976" filterUnits="userSpaceOnUse" color-interpolation-filters="sRGB">
<feFlood flood-opacity="0" result="BackgroundImageFix"/>
<feBlend mode="normal" in="SourceGraphic" in2="BackgroundImageFix" result="shape"/>
<feGaussianBlur stdDeviation="44.5327" result="effect1_foregroundBlur_2_125"/>
</filter>
<filter id="filter4_dd_2_125" x="29.0844" y="97.2124" width="201.039" height="204.851" filterUnits="userSpaceOnUse" color-interpolation-filters="sRGB">
<feFlood flood-opacity="0" result="BackgroundImageFix"/>
<feColorMatrix in="SourceAlpha" type="matrix" values="0 0 0 0 0 0 0 0 0 0 0 0 0 0 0 0 0 0 127 0" result="hardAlpha"/>
<feOffset dx="6.66956" dy="23.8198"/>
<feGaussianBlur stdDeviation="19.5323"/>
<feColorMatrix type="matrix" values="0 0 0 0 0.758333 0 0 0 0 0.408363 0 0 0 0 0.0853125 0 0 0 0.77 0"/>
<feBlend mode="normal" in2="BackgroundImageFix" result="effect1_dropShadow_2_125"/>
<feColorMatrix in="SourceAlpha" type="matrix" values="0 0 0 0 0 0 0 0 0 0 0 0 0 0 0 0 0 0 127 0" result="hardAlpha"/>
<feOffset dx="-4.76397" dy="-4.76397"/>
<feGaussianBlur stdDeviation="7.14595"/>
<feColorMatrix type="matrix" values="0 0 0 0 1 0 0 0 0 1 0 0 0 0 1 0 0 0 0.59 0"/>
<feBlend mode="normal" in2="effect1_dropShadow_2_125" result="effect2_dropShadow_2_125"/>
<feBlend mode="normal" in="SourceGraphic" in2="effect2_dropShadow_2_125" result="shape"/>
</filter>
<filter id="filter5_dd_2_125" x="246.722" y="97.2125" width="201.039" height="204.851" filterUnits="userSpaceOnUse" color-interpolation-filters="sRGB">
<feFlood flood-opacity="0" result="BackgroundImageFix"/>
<feColorMatrix in="SourceAlpha" type="matrix" values="0 0 0 0 0 0 0 0 0 0 0 0 0 0 0 0 0 0 127 0" result="hardAlpha"/>
<feOffset dx="-6.66956" dy="23.8198"/>
<feGaussianBlur stdDeviation="19.5323"/>
<feColorMatrix type="matrix" values="0 0 0 0 0.758333 0 0 0 0 0.408363 0 0 0 0 0.0853125 0 0 0 0.77 0"/>
<feBlend mode="normal" in2="BackgroundImageFix" result="effect1_dropShadow_2_125"/>
<feColorMatrix in="SourceAlpha" type="matrix" values="0 0 0 0 0 0 0 0 0 0 0 0 0 0 0 0 0 0 127 0" result="hardAlpha"/>
<feOffset dx="4.76397" dy="-4.76397"/>
<feGaussianBlur stdDeviation="7.14595"/>
<feColorMatrix type="matrix" values="0 0 0 0 1 0 0 0 0 1 0 0 0 0 1 0 0 0 0.59 0"/>
<feBlend mode="normal" in2="effect1_dropShadow_2_125" result="effect2_dropShadow_2_125"/>
<feBlend mode="normal" in="SourceGraphic" in2="effect2_dropShadow_2_125" result="shape"/>
</filter>
<filter id="filter6_f_2_125" x="259.629" y="319.355" width="169.905" height="155.758" filterUnits="userSpaceOnUse" color-interpolation-filters="sRGB">
<feFlood flood-opacity="0" result="BackgroundImageFix"/>
<feBlend mode="normal" in="SourceGraphic" in2="BackgroundImageFix" result="shape"/>
<feGaussianBlur stdDeviation="20.7819" result="effect1_foregroundBlur_2_125"/>
</filter>
<filter id="filter7_f_2_125" x="294.678" y="376.807" width="77.8777" height="73.4292" filterUnits="userSpaceOnUse" color-interpolation-filters="sRGB">
<feFlood flood-opacity="0" result="BackgroundImageFix"/>
<feBlend mode="normal" in="SourceGraphic" in2="BackgroundImageFix" result="shape"/>
<feGaussianBlur stdDeviation="11.8754" result="effect1_foregroundBlur_2_125"/>
</filter>
<filter id="filter8_f_2_125" x="201.427" y="362.355" width="129.062" height="125.098" filterUnits="userSpaceOnUse" color-interpolation-filters="sRGB">
<feFlood flood-opacity="0" result="BackgroundImageFix"/>
<feBlend mode="normal" in="SourceGraphic" in2="BackgroundImageFix" result="shape"/>
<feGaussianBlur stdDeviation="20.7819" result="effect1_foregroundBlur_2_125"/>
</filter>
<filter id="filter9_f_2_125" x="115.638" y="358.832" width="146.335" height="139.196" filterUnits="userSpaceOnUse" color-interpolation-filters="sRGB">
<feFlood flood-opacity="0" result="BackgroundImageFix"/>
<feBlend mode="normal" in="SourceGraphic" in2="BackgroundImageFix" result="shape"/>
<feGaussianBlur stdDeviation="20.7819" result="effect1_foregroundBlur_2_125"/>
</filter>
<radialGradient id="paint0_radial_2_125" cx="0" cy="0" r="1" gradientUnits="userSpaceOnUse" gradientTransform="translate(238.423 61.0477) rotate(91.118) scale(380.382 307.409)">
<stop stop-color="#FFF0D3"/>
<stop offset="0.420971" stop-color="#FFED48" stop-opacity="0.990923"/>
<stop offset="0.829897" stop-color="#FFD643" stop-opacity="0.77"/>
<stop offset="1" stop-color="#C69F17"/>
</radialGradient>
<linearGradient id="paint1_linear_2_125" x1="230.407" y1="239.773" x2="230.407" y2="400.09" gradientUnits="userSpaceOnUse">
<stop stop-color="#9E4722"/>
<stop offset="1" stop-color="#BB391C" stop-opacity="0.87"/>
</linearGradient>
<linearGradient id="paint2_linear_2_125" x1="122.935" y1="125.083" x2="122.983" y2="250.073" gradientUnits="userSpaceOnUse">
<stop stop-color="#2E1E65"/>
<stop offset="1" stop-color="#11082F"/>
</linearGradient>
<linearGradient id="paint3_linear_2_125" x1="353.911" y1="125.083" x2="353.96" y2="250.073" gradientUnits="userSpaceOnUse">
<stop stop-color="#2E1E65"/>
<stop offset="1" stop-color="#11082F"/>
</linearGradient>
</defs>
</svg>
